{"title":"The Notorious Bettie Page.2005.DVD.XviD-IMBT","uid":7583849,"size":734115840,"categoryP":"video","categoryS":"movies","magnet":"?xt=urn:btih:cc97fb09a6c6b445d9d027b58253f21dc83501fe&amp;dn=The+Notorious+Bettie+Page.2005.DVD.XviD-IMBT&amp;tr=udp%3A%2F%2Ftracker.openbittorrent.com%3A80&amp;tr=udp%3A%2F%2Fopen.demonii.com%3A1337&amp;tr=udp%3A%2F%2Ftracker.coppersurfer.tk%3A6969&amp;tr=udp%3A%2F%2Fexodus.desync.com%3A6969","seeders":2,"leechers":0,"uploader":"ioannisarc","files":1,"time":1346362759,"description":"The story of Bettie Page, uber-successful 1950's pin-up model, one of the first sex icons in America, and the target of a Senate investigation (based on her bondage photos).\n\nFormat : AVI\nFormat/Info : Audio Video Interleave\nFile size : 700 MiB\nDuration : 1h 30mn\nOverall bit rate : 1 079 Kbps\nWriting application : VirtualDubMod 1.5.10.1 (build 2439/release)\nWriting library : VirtualDubMod build 2439/release\n\nVideo\nFormat : MPEG-4 Visual\nFormat profile : Simple@L3\nFormat settings, BVOP : No\nFormat settings, QPel : No\nFormat settings, GMC : No warppoints\nFormat settings, Matrix : Default\nCodec ID : XVID\nCodec ID/Hint : XviD\nDuration : 1h 30mn\nBit rate : 933 Kbps\nWidth : 576 pixels\nHeight : 320 pixels\nDisplay aspect ratio : 16/9\nFrame rate : 23.976 fps\nResolution : 24 bits\nColorimetry : 4:2:0\nScan type : Progressive\nBits/(Pixel*Frame) : 0.211\nStream size : 605 MiB (86%)\nWriting library : XviD 1.0.3 (UTC 2004-12-20)\n\nAudio\nFormat : MPEG Audio\nFormat version : Version 1\nFormat profile : Layer 3\nCodec ID : 55\nCodec ID/Hint : MP3\nDuration : 1h 30mn\nBit rate mode : Variable\nBit rate : 134 Kbps\nMinimum bit rate : 128 Kbps\nChannel(s) : 2 channels\nSampling rate : 48.0 KHz\nResolution : 16 bits\nStream size : 86.7 MiB (12%)\nAlignment : Aligned on interleaves\nInterleave, duration : 24 ms (0.58 video frame)\nInterleave, preload duration : 137 ms\nWriting library : LAME3.96r\nEncoding settings : ABR","torrent":{"xt":"urn:btih:cc97fb09a6c6b445d9d027b58253f21dc83501fe","amp;dn":"The+Notorious+Bettie+Page.2005.DVD.XviD-IMBT","amp;tr":["udp%3A%2F%2Ftracker.openbittorrent.com%3A80","udp%3A%2F%2Fopen.demonii.com%3A1337","udp%3A%2F%2Ftracker.coppersurfer.tk%3A6969","udp%3A%2F%2Fexodus.desync.com%3A6969"],"infoHash":"cc97fb09a6c6b445d9d027b58253f21dc83501fe","infoHashBuffer":{"type":"Buffer","data":[204,151,251,9,166,198,180,69,217,208,39,181,130,83,242,29,200,53,1,254]},"announce":[],"urlList":[]}}